<svg xmlns="http://www.w3.org/2000/svg" width="45.637001" height="45.637001" viewBox="0 0 9.5794205 9.5391315">
    <path fill="#53bff9"
          d="M4.4370602 9.25295c-.3482-.3976-2.108-2.3857-2.108-3.6742 0-1.427 1.1036-2.5878 2.4606-2.5878s2.4607 1.1608 2.4607 2.5885c0 1.2852-1.7555 3.2665-2.1074 3.6728-.3578.3983-.3578.3983-.706.0008z"/>
    <path fill="#da35cc" fill-opacity=".7787"
          d="M4.4370602 6.23375c-.3482-.3976-2.1079999-2.3857-2.1079999-3.6742 0-1.4271 1.1035999-2.5878 2.4605999-2.5878s2.4607 1.1607 2.4607 2.5885c0 1.2852-1.7554 3.2665-2.1074 3.6728-.3577.3983-.3577.3983-.7059.0008z"/>
</svg>